<svg xmlns="http://www.w3.org/2000/svg" id="canvas" viewBox="333.822 265.784 908.412 216.494"><path d="M 376.21,308.86 C 376.00 310.94, 376.45 313.15, 377.29 319.04 C 378.13 324.92, 379.04 329.08, 380.43 338.28 C 381.81 347.48, 382.41 353.86, 384.21 365.05 C 386.02 376.24, 387.46 382.74, 389.47 394.21 C 391.47 405.68, 392.56 411.86, 394.25 422.40 C 395.94 432.94, 396.74 438.51, 397.91 446.92 C 399.08 455.32, 399.45 459.05, 400.08 464.43 C 400.71 469.81, 400.56 471.96, 401.07 473.81 C 401.57 475.66, 402.41 475.60, 402.61 473.68 C 402.80 471.76, 402.62 469.61, 402.04 464.21 C 401.45 458.81, 400.94 455.07, 399.69 446.66 C 398.44 438.25, 397.52 432.69, 395.78 422.15 C 394.04 411.61, 392.95 405.42, 390.97 393.94 C 389.00 382.47, 387.62 375.97, 385.92 364.78 C 384.22 353.59, 383.72 347.20, 382.46 337.99 C 381.20 328.77, 380.45 324.58, 379.64 318.71 C 378.82 312.83, 379.06 310.58, 378.37 308.61 C 377.69 306.64, 376.43 306.77, 376.21 308.86" style="stroke: black; fill: black;"/><path d="M 339.32,297.81 C 341.76 296.50, 344.31 293.07, 350.03 289.35 C 355.75 285.64, 359.74 282.74, 367.92 279.24 C 376.10 275.74, 381.40 273.49, 390.94 271.87 C 400.48 270.24, 405.64 270.11, 415.62 271.11 C 425.61 272.12, 431.18 273.76, 440.88 276.89 C 450.58 280.01, 455.77 282.07, 464.14 286.74 C 472.52 291.40, 476.82 294.48, 482.76 300.21 C 488.69 305.94, 491.32 309.32, 493.81 315.39 C 496.30 321.47, 496.71 324.62, 495.19 330.60 C 493.67 336.57, 491.71 339.76, 486.22 345.29 C 480.73 350.82, 475.98 353.51, 467.76 358.24 C 459.54 362.97, 453.88 365.22, 445.11 368.96 C 436.33 372.70, 431.35 374.38, 423.88 376.95 C 416.41 379.52, 412.56 379.94, 407.76 381.82 C 402.97 383.70, 401.07 384.10, 399.90 386.36 C 398.73 388.62, 399.20 390.36, 401.90 393.10 C 404.59 395.84, 407.21 396.78, 413.38 400.06 C 419.56 403.34, 424.13 405.09, 432.77 409.49 C 441.41 413.90, 446.81 416.76, 456.59 422.08 C 466.38 427.41, 471.90 430.64, 481.69 436.11 C 491.48 441.59, 496.61 444.42, 505.56 449.46 C 514.52 454.50, 518.89 457.24, 526.48 461.33 C 534.07 465.41, 537.49 467.18, 543.52 469.87 C 549.54 472.57, 551.98 473.49, 556.60 474.79 C 561.22 476.09, 563.19 476.66, 566.61 476.38 C 570.03 476.10, 571.62 475.38, 573.68 473.38 C 575.73 471.39, 576.18 469.75, 576.88 466.41 C 577.58 463.06, 577.28 460.23, 577.18 456.64 C 577.07 453.06, 576.87 450.67, 576.37 448.48 C 575.87 446.29, 574.61 445.64, 574.68 445.69 C 574.75 445.74, 574.81 446.80, 576.72 448.73 C 578.63 450.66, 580.65 452.41, 584.22 455.34 C 587.80 458.27, 590.12 460.49, 594.61 463.36 C 599.10 466.23, 601.94 467.73, 606.66 469.70 C 611.38 471.68, 614.24 472.33, 618.22 473.24 C 622.20 474.15, 623.89 474.39, 626.55 474.26 C 629.22 474.12, 630.58 473.23, 631.54 472.56 C 632.49 471.89, 632.30 471.33, 631.32 470.90 C 630.35 470.48, 629.12 470.73, 626.67 470.44 C 624.22 470.15, 622.80 470.23, 619.07 469.43 C 615.34 468.63, 612.49 468.28, 608.02 466.44 C 603.54 464.59, 600.88 463.11, 596.71 460.21 C 592.53 457.32, 590.52 455.05, 587.14 451.96 C 583.77 448.87, 582.45 446.38, 579.82 444.77 C 577.19 443.16, 575.74 443.17, 574.00 443.90 C 572.26 444.64, 571.63 445.86, 571.10 448.45 C 570.58 451.05, 571.20 453.40, 571.38 456.87 C 571.55 460.34, 572.03 462.99, 571.97 465.79 C 571.90 468.60, 572.17 469.50, 571.03 470.90 C 569.90 472.30, 569.06 472.55, 566.30 472.80 C 563.55 473.05, 561.65 473.12, 557.26 472.15 C 552.88 471.18, 550.35 470.41, 544.35 467.93 C 538.36 465.46, 534.90 463.74, 527.30 459.78 C 519.70 455.81, 515.30 453.09, 506.33 448.09 C 497.36 443.09, 492.23 440.26, 482.44 434.77 C 472.66 429.27, 467.15 426.03, 457.41 420.61 C 447.66 415.19, 442.28 412.23, 433.73 407.66 C 425.18 403.09, 420.60 401.11, 414.65 397.75 C 408.69 394.39, 406.51 392.90, 403.94 390.85 C 401.38 388.80, 400.87 388.82, 401.82 387.49 C 402.76 386.15, 404.12 385.89, 408.67 384.17 C 413.22 382.46, 417.14 381.60, 424.57 378.90 C 432.01 376.20, 437.02 374.49, 445.85 370.69 C 454.68 366.89, 460.35 364.69, 468.71 359.89 C 477.06 355.08, 481.93 352.43, 487.62 346.67 C 493.30 340.91, 495.54 337.49, 497.14 331.09 C 498.74 324.68, 498.24 321.09, 495.62 314.65 C 492.99 308.22, 490.14 304.79, 484.01 298.91 C 477.87 293.04, 473.48 289.99, 464.95 285.28 C 456.43 280.57, 451.20 278.52, 441.37 275.36 C 431.54 272.21, 425.93 270.54, 415.79 269.49 C 405.65 268.43, 400.38 268.51, 390.65 270.09 C 380.92 271.66, 375.49 273.88, 367.13 277.37 C 358.77 280.85, 354.71 283.81, 348.85 287.52 C 342.99 291.22, 339.74 293.84, 337.83 295.89 C 335.93 297.95, 336.88 299.12, 339.32 297.81" style="stroke: black; fill: black;"/><path d="M 565.01,345.77 C 566.43 346.12, 568.66 345.57, 571.10 345.00 C 573.54 344.44, 574.96 343.78, 577.23 342.95 C 579.51 342.12, 581.48 341.81, 582.47 340.87 C 583.47 339.93, 583.50 338.97, 582.21 338.26 C 580.92 337.56, 578.64 337.10, 576.01 337.34 C 573.39 337.57, 571.50 338.26, 569.10 339.44 C 566.69 340.63, 564.80 342.00, 563.98 343.26 C 563.17 344.53, 563.59 345.42, 565.01 345.77" style="stroke: black; fill: black;"/><path d="M 688.65,402.12 C 688.20 401.37, 687.89 400.69, 686.03 400.30 C 684.16 399.91, 682.50 399.22, 679.33 400.18 C 676.17 401.13, 674.00 402.24, 670.20 405.08 C 666.40 407.93, 663.89 410.10, 660.33 414.41 C 656.76 418.72, 654.61 421.44, 652.35 426.64 C 650.10 431.83, 649.10 435.06, 649.07 440.37 C 649.03 445.69, 649.63 448.90, 652.19 453.22 C 654.75 457.55, 657.34 459.57, 661.86 461.99 C 666.37 464.42, 669.42 465.25, 674.77 465.34 C 680.12 465.43, 683.24 464.92, 688.61 462.44 C 693.98 459.96, 696.99 458.08, 701.63 452.95 C 706.26 447.81, 708.26 444.24, 711.79 436.77 C 715.33 429.30, 716.99 424.54, 719.29 415.58 C 721.59 406.62, 722.61 401.58, 723.29 391.98 C 723.96 382.38, 723.43 376.78, 722.65 367.58 C 721.87 358.37, 721.11 353.67, 719.38 345.95 C 717.66 338.23, 716.32 334.70, 714.02 328.99 C 711.71 323.27, 710.39 320.61, 707.85 317.39 C 705.31 314.17, 703.46 312.88, 701.31 312.89 C 699.16 312.90, 697.58 313.95, 697.10 317.43 C 696.62 320.92, 697.42 323.66, 698.89 330.31 C 700.36 336.97, 701.70 341.48, 704.44 350.71 C 707.18 359.94, 708.89 365.89, 712.58 376.45 C 716.27 387.01, 718.62 393.05, 722.88 403.50 C 727.14 413.96, 729.55 419.40, 733.86 428.73 C 738.17 438.06, 740.40 442.69, 744.45 450.16 C 748.50 457.63, 750.73 461.02, 754.12 466.08 C 757.52 471.13, 758.84 472.85, 761.41 475.44 C 763.98 478.04, 765.24 478.43, 766.98 479.05 C 768.72 479.67, 769.48 478.86, 770.11 478.54 C 770.74 478.22, 770.55 477.80, 770.14 477.46 C 769.72 477.11, 769.34 477.69, 768.05 476.84 C 766.75 475.99, 766.07 475.63, 763.65 473.21 C 761.24 470.80, 759.50 469.56, 755.98 464.78 C 752.45 459.99, 750.16 456.63, 746.02 449.29 C 741.88 441.95, 739.63 437.34, 735.29 428.06 C 730.95 418.79, 728.53 413.35, 724.31 402.92 C 720.09 392.49, 717.75 386.46, 714.18 375.90 C 710.61 365.34, 708.99 359.36, 706.47 350.13 C 703.95 340.90, 702.78 336.26, 701.59 329.77 C 700.40 323.27, 700.63 320.61, 700.53 317.64 C 700.43 314.67, 700.13 314.59, 701.10 314.92 C 702.06 315.24, 703.21 316.27, 705.36 319.27 C 707.50 322.27, 709.41 324.49, 711.83 329.91 C 714.25 335.34, 715.65 338.83, 717.46 346.39 C 719.26 353.96, 720.04 358.64, 720.85 367.73 C 721.66 376.82, 722.18 382.38, 721.50 391.86 C 720.82 401.33, 719.78 406.30, 717.46 415.10 C 715.14 423.90, 713.41 428.61, 709.89 435.86 C 706.37 443.10, 704.34 446.51, 699.86 451.33 C 695.38 456.15, 692.49 457.75, 687.49 459.96 C 682.48 462.16, 679.67 462.49, 674.84 462.35 C 670.00 462.22, 667.31 461.41, 663.31 459.27 C 659.31 457.14, 657.06 455.44, 654.82 451.67 C 652.58 447.89, 652.02 445.16, 652.10 440.41 C 652.19 435.66, 653.06 432.66, 655.24 427.93 C 657.42 423.19, 659.51 420.56, 663.00 416.72 C 666.48 412.88, 669.06 410.89, 672.67 408.72 C 676.27 406.55, 678.35 406.62, 681.01 405.85 C 683.68 405.09, 684.54 405.26, 685.99 404.90 C 687.45 404.54, 687.75 404.60, 688.28 404.04 C 688.81 403.48, 689.10 402.87, 688.65 402.12" style="stroke: black; fill: black;"/><path d="M 773.28,319.67 C 773.40 321.31, 774.23 322.74, 775.86 327.05 C 777.49 331.36, 778.82 334.22, 781.43 341.22 C 784.04 348.22, 785.68 353.10, 788.90 362.03 C 792.12 370.96, 794.27 376.45, 797.53 385.87 C 800.79 395.30, 802.25 400.67, 805.19 409.16 C 808.13 417.65, 809.39 421.53, 812.21 428.33 C 815.03 435.12, 816.45 438.30, 819.30 443.12 C 822.16 447.94, 823.53 449.90, 826.49 452.41 C 829.44 454.93, 830.97 455.59, 834.08 455.71 C 837.19 455.83, 838.87 454.97, 842.03 453.02 C 845.19 451.07, 846.72 449.13, 849.87 445.95 C 853.02 442.77, 854.63 440.38, 857.78 437.11 C 860.92 433.83, 862.57 431.75, 865.59 429.57 C 868.61 427.39, 869.97 426.67, 872.88 426.19 C 875.78 425.72, 876.97 425.88, 880.13 427.19 C 883.29 428.51, 884.95 429.98, 888.68 432.77 C 892.41 435.57, 894.72 437.85, 898.80 441.17 C 902.88 444.50, 905.12 446.40, 909.09 449.40 C 913.06 452.40, 915.02 454.14, 918.64 456.19 C 922.25 458.25, 924.03 459.21, 927.17 459.66 C 930.31 460.11, 931.84 459.81, 934.34 458.46 C 936.84 457.12, 938.03 455.85, 939.67 452.94 C 941.30 450.02, 941.62 447.85, 942.52 443.89 C 943.43 439.93, 943.79 436.78, 944.18 433.14 C 944.58 429.51, 944.60 427.39, 944.49 425.70 C 944.37 424.01, 943.53 423.88, 943.61 424.71 C 943.69 425.53, 943.44 427.14, 944.89 429.81 C 946.34 432.49, 947.89 434.59, 950.86 438.08 C 953.84 441.58, 955.76 443.87, 959.76 447.28 C 963.75 450.69, 966.14 452.60, 970.83 455.14 C 975.52 457.68, 978.32 458.69, 983.23 459.99 C 988.13 461.29, 990.72 461.62, 995.34 461.63 C 999.96 461.64, 1002.46 461.36, 1006.32 460.05 C 1010.17 458.73, 1011.93 457.56, 1014.61 455.06 C 1017.29 452.56, 1018.28 450.87, 1019.72 447.56 C 1021.16 444.24, 1021.33 442.05, 1021.79 438.50 C 1022.26 434.95, 1022.45 433.02, 1022.05 429.82 C 1021.65 426.61, 1020.75 424.81, 1019.80 422.46 C 1018.85 420.11, 1018.30 419.39, 1017.28 418.07 C 1016.26 416.75, 1015.53 416.29, 1014.68 415.87 C 1013.83 415.44, 1013.43 415.75, 1013.02 415.93 C 1012.61 416.12, 1012.68 416.43, 1012.61 416.78 C 1012.53 417.13, 1012.50 416.98, 1012.65 417.67 C 1012.79 418.37, 1012.90 418.93, 1013.33 420.25 C 1013.77 421.58, 1014.15 422.23, 1014.83 424.29 C 1015.50 426.35, 1016.27 427.82, 1016.70 430.56 C 1017.12 433.30, 1017.19 434.93, 1016.96 437.99 C 1016.74 441.05, 1016.61 443.05, 1015.56 445.87 C 1014.52 448.69, 1013.84 449.96, 1011.74 452.08 C 1009.63 454.20, 1008.33 455.25, 1005.05 456.47 C 1001.76 457.68, 999.52 458.09, 995.32 458.17 C 991.12 458.24, 988.63 458.02, 984.05 456.84 C 979.47 455.66, 976.79 454.72, 972.42 452.26 C 968.05 449.80, 965.81 447.95, 962.22 444.55 C 958.63 441.14, 957.06 438.75, 954.48 435.22 C 951.89 431.70, 951.22 429.37, 949.30 426.92 C 947.38 424.46, 946.58 423.43, 944.89 422.96 C 943.20 422.48, 942.08 422.67, 940.84 424.55 C 939.60 426.43, 939.34 428.70, 938.69 432.36 C 938.05 436.03, 938.30 439.20, 937.62 442.87 C 936.94 446.55, 936.33 448.30, 935.28 450.74 C 934.23 453.17, 933.87 454.11, 932.39 455.03 C 930.91 455.96, 930.25 455.78, 927.86 455.35 C 925.48 454.91, 923.79 454.61, 920.46 452.86 C 917.12 451.11, 915.06 449.49, 911.17 446.61 C 907.28 443.74, 905.07 441.83, 901.01 438.47 C 896.95 435.12, 894.77 432.81, 890.88 429.86 C 886.99 426.90, 885.29 425.20, 881.57 423.69 C 877.85 422.19, 875.93 421.82, 872.29 422.35 C 868.64 422.89, 866.80 423.97, 863.33 426.36 C 859.85 428.75, 858.18 430.98, 854.90 434.31 C 851.62 437.64, 849.94 439.97, 846.91 443.02 C 843.88 446.06, 842.30 447.74, 839.74 449.55 C 837.18 451.36, 836.35 451.99, 834.11 452.07 C 831.86 452.16, 831.06 452.02, 828.52 449.97 C 825.99 447.92, 824.31 446.30, 821.42 441.81 C 818.54 437.33, 816.98 434.18, 814.08 427.53 C 811.18 420.88, 809.88 417.01, 806.92 408.56 C 803.95 400.11, 802.48 394.72, 799.27 385.28 C 796.06 375.83, 793.96 370.32, 790.87 361.34 C 787.78 352.36, 786.26 347.44, 783.81 340.37 C 781.37 333.29, 780.35 330.27, 778.65 325.97 C 776.94 321.67, 776.34 320.11, 775.27 318.85 C 774.20 317.59, 773.16 318.03, 773.28 319.67" style="stroke: black; fill: black;"/><path d="M 1080.60,414.38 C 1079.74 413.70, 1078.82 412.88, 1076.27 413.07 C 1073.72 413.26, 1071.91 413.60, 1067.84 415.32 C 1063.77 417.05, 1060.72 418.45, 1055.92 421.70 C 1051.13 424.94, 1047.89 427.33, 1043.88 431.54 C 1039.86 435.75, 1037.66 438.40, 1035.85 442.75 C 1034.04 447.09, 1033.59 449.75, 1034.83 453.25 C 1036.07 456.75, 1038.14 458.59, 1042.06 460.26 C 1045.97 461.93, 1049.19 461.91, 1054.39 461.59 C 1059.60 461.27, 1062.81 460.45, 1068.08 458.67 C 1073.34 456.88, 1076.19 455.41, 1080.73 452.66 C 1085.26 449.91, 1087.48 447.78, 1090.76 444.91 C 1094.05 442.04, 1095.24 440.29, 1097.16 438.32 C 1099.07 436.34, 1099.03 435.24, 1100.34 435.04 C 1101.66 434.83, 1101.71 435.64, 1103.73 437.29 C 1105.76 438.94, 1107.15 440.50, 1110.47 443.30 C 1113.78 446.09, 1116.18 448.19, 1120.29 451.26 C 1124.41 454.34, 1126.75 456.29, 1131.03 458.66 C 1135.31 461.03, 1137.50 461.92, 1141.69 463.11 C 1145.89 464.30, 1148.16 464.81, 1152.01 464.61 C 1155.86 464.41, 1157.90 463.87, 1160.94 462.11 C 1163.98 460.35, 1164.93 458.62, 1167.21 455.80 C 1169.49 452.98, 1170.35 450.79, 1172.35 448.00 C 1174.35 445.21, 1175.41 443.64, 1177.22 441.84 C 1179.02 440.03, 1179.48 439.27, 1181.35 438.98 C 1183.23 438.70, 1184.03 439.10, 1186.60 440.41 C 1189.18 441.72, 1190.73 443.07, 1194.23 445.52 C 1197.73 447.97, 1199.92 449.81, 1204.10 452.68 C 1208.28 455.55, 1210.85 457.19, 1215.13 459.86 C 1219.40 462.54, 1221.72 463.96, 1225.49 466.06 C 1229.26 468.16, 1231.41 469.35, 1233.97 470.38 C 1236.54 471.41, 1237.31 471.29, 1238.30 471.20 C 1239.30 471.12, 1239.46 470.84, 1238.96 469.96 C 1238.46 469.08, 1238.12 468.27, 1235.80 466.81 C 1233.47 465.34, 1231.11 464.63, 1227.35 462.64 C 1223.59 460.65, 1221.21 459.47, 1216.98 456.87 C 1212.76 454.27, 1210.30 452.59, 1206.24 449.65 C 1202.17 446.71, 1200.19 444.85, 1196.67 442.17 C 1193.14 439.50, 1191.78 437.78, 1188.61 436.29 C 1185.43 434.80, 1183.76 434.38, 1180.79 434.73 C 1177.83 435.08, 1176.28 435.96, 1173.79 438.06 C 1171.29 440.15, 1170.35 442.20, 1168.32 445.20 C 1166.29 448.20, 1165.54 450.40, 1163.63 453.05 C 1161.71 455.71, 1161.11 456.95, 1158.73 458.47 C 1156.36 459.99, 1154.98 460.43, 1151.77 460.66 C 1148.55 460.89, 1146.46 460.63, 1142.66 459.60 C 1138.87 458.58, 1136.78 457.83, 1132.78 455.55 C 1128.78 453.27, 1126.55 451.29, 1122.67 448.19 C 1118.78 445.08, 1116.59 442.98, 1113.34 440.02 C 1110.10 437.06, 1109.14 435.04, 1106.44 433.40 C 1103.74 431.77, 1102.31 431.48, 1099.86 431.84 C 1097.41 432.20, 1096.49 433.13, 1094.18 435.21 C 1091.87 437.28, 1091.33 439.29, 1088.29 442.22 C 1085.26 445.15, 1083.26 447.20, 1079.00 449.87 C 1074.75 452.53, 1071.99 453.88, 1067.02 455.53 C 1062.06 457.18, 1058.91 457.81, 1054.18 458.11 C 1049.45 458.40, 1046.59 458.19, 1043.37 457.00 C 1040.14 455.80, 1038.95 454.71, 1038.06 452.12 C 1037.17 449.53, 1037.26 447.72, 1038.91 444.07 C 1040.56 440.42, 1042.48 437.73, 1046.29 433.87 C 1050.09 430.02, 1053.30 427.68, 1057.94 424.80 C 1062.58 421.91, 1065.67 420.89, 1069.49 419.47 C 1073.31 418.05, 1074.82 418.29, 1077.03 417.69 C 1079.25 417.09, 1079.87 417.12, 1080.58 416.46 C 1081.30 415.80, 1081.47 415.06, 1080.60 414.38" style="stroke: black; fill: black;"/></svg>